# xmcd CD database file
#
# Track frame offsets:
#	150
#	16745
#	35235
#	45992
#	61965
#	82455
#	95975
#	112447
#	126820
#	146192
#	162765
#	177350
#	196712
#	224780
#
# Disc length: 3254 seconds
#
# Revision: 0
# Processed by: cddbd v1.4PL0 Copyright (c) Steve Scherf et al.
# Submitted via: CDex 1.50Beta7
#
DISCID=da0cb40e
DTITLE=Jiri Urbanek Band and Dana Vrchovska - Jazz Evergreens
DYEAR=1900
DGENRE=Jazz
TTITLE0=Sweet Georgia Brown
TTITLE1=My Funny Valentine
TTITLE2=Zalezi,kdo vic stesti ma (I'm Beginning To See the Light)
TTITLE3=Duha (Over the Rainbow)
TTITLE4=Summertime
TTITLE5=Oh,Lady Be Good
TTITLE6=Tenessee Waltz
TTITLE7=Take the "A" Train
TTITLE8=Swinging Shepherd Blues
TTITLE9=Blazen na kopci (Fool On The Hill)
TTITLE10=Ted hned (Volare)
TTITLE11=Yesterdays
TTITLE12=Mercy,Mercy,Mercy
TTITLE13=I'II Remember April
EXTD=
EXTT0=
EXTT1=
EXTT2=
EXTT3=
EXTT4=
EXTT5=
EXTT6=
EXTT7=
EXTT8=
EXTT9=
EXTT10=
EXTT11=
EXTT12=
EXTT13=
PLAYORDER=
